<svg xmlns="http://www.w3.org/2000/svg" viewBox="0 0 34 35" width="34" height="35">
	<defs>
		<clipPath clipPathUnits="userSpaceOnUse" id="cp1">
			<path d="M-563 -415L187 -415L187 2455L-563 2455Z" />
		</clipPath>
	</defs>
	<style>
		tspan { white-space:pre }
		.access-shp0 { fill: #fdd353 } 
	</style>
	<g id="User Profile – Results – Interaction" clip-path="url(#cp1)">
		<g id="Group 481">
			<g id="Group 425">
				<g id="access">
					<g id="Group 422">
						<path id="Path 2216" class="access-shp0" d="M7.41 34.49C8 35.07 8.95 35.07 9.54 34.49C10.13 33.9 10.13 32.95 9.54 32.36L7.94 30.76L10.07 28.64L11.67 30.23C12.25 30.82 13.2 30.82 13.79 30.23C14.38 29.64 14.38 28.69 13.79 28.1L10.6 24.91L4.22 31.29L7.41 34.49Z" />
						<path id="Path 2217" class="access-shp0" d="M29.91 6.67C31.27 8.98 30.96 12 28.98 13.98C27 15.96 23.97 16.27 21.67 14.91L19.52 14.93L19.49 17.09C23.02 19.6 27.94 19.27 31.11 16.11C34.27 12.95 34.59 8.02 32.08 4.5L29.93 4.52L29.91 6.67Z" />
					</g>
					<path id="Path 2218" class="access-shp0" d="M20.47 13.98C18.12 11.63 18.12 7.82 20.47 5.47C22.82 3.12 26.63 3.12 28.98 5.47C29.35 5.84 29.66 6.24 29.91 6.67L32.08 4.5C31.79 4.09 31.47 3.71 31.11 3.34C27.58 -0.18 21.86 -0.18 18.34 3.34C15.18 6.51 14.85 11.43 17.36 14.96L0.44 31.88C-0.15 32.47 -0.15 33.42 0.44 34.01C1.03 34.6 1.98 34.6 2.57 34.01L19.49 17.09L21.67 14.91C21.24 14.66 20.84 14.35 20.47 13.98Z" />
				</g>
			</g>
		</g>
	</g>
</svg>