<svg xmlns="http://www.w3.org/2000/svg" width="19.574" height="23.488" viewBox="0 0 19.574 23.488"><defs><style>.a{fill:#fff;}</style></defs><g transform="translate(-42.657)"><g transform="translate(42.657 3.425)"><path class="a" d="M62.162,91.053l-1.681-2.8A8.326,8.326,0,0,1,59.3,83.971V81.518a6.851,6.851,0,1,0-13.7,0v2.454a8.326,8.326,0,0,1-1.185,4.281l-1.681,2.8a.489.489,0,0,0,.42.741H61.742a.489.489,0,0,0,.42-.741Zm-18.15-.238,1.236-2.06a9.3,9.3,0,0,0,1.325-4.784V81.518a5.872,5.872,0,1,1,11.744,0v2.454a9.3,9.3,0,0,0,1.324,4.784l1.237,2.06Z" transform="translate(-42.657 -74.667)"/></g><g transform="translate(50.487)"><path class="a" d="M215.29,0a1.959,1.959,0,0,0-1.957,1.957V3.915a.489.489,0,0,0,.979,0V1.957a.979.979,0,1,1,1.957,0V3.915a.489.489,0,0,0,.979,0V1.957A1.959,1.959,0,0,0,215.29,0Z" transform="translate(-213.333)"/></g><g transform="translate(49.998 19.574)"><path class="a" d="M207.23,426.921a.49.49,0,0,0-.846.5,1.468,1.468,0,1,1-2.543,0,.49.49,0,0,0-.846-.5,2.448,2.448,0,1,0,4.234,0Z" transform="translate(-202.666 -426.68)"/></g></g></svg>