<svg xmlns="http://www.w3.org/2000/svg" width="100.061" height="66.707" viewBox="0 0 100.061 66.707"><defs><style>.a{fill:#fd0a36;}</style></defs><g transform="translate(0 -85.333)"><g transform="translate(0 85.333)"><g transform="translate(0 0)"><path class="a" d="M89.637,85.333H10.423A10.437,10.437,0,0,0,0,95.756v45.861A10.437,10.437,0,0,0,10.423,152.04H89.637a10.437,10.437,0,0,0,10.423-10.423V95.756A10.437,10.437,0,0,0,89.637,85.333Zm6.254,56.284a6.261,6.261,0,0,1-6.254,6.254H10.423a6.261,6.261,0,0,1-6.254-6.254V95.756A6.261,6.261,0,0,1,10.423,89.5H89.637a6.261,6.261,0,0,1,6.254,6.254v45.861Z" transform="translate(0 -85.333)"/></g></g><g transform="translate(0 97.841)"><g transform="translate(0 0)"><path class="a" d="M97.976,149.333H2.085A2.085,2.085,0,0,0,0,151.418v12.508a2.085,2.085,0,0,0,2.085,2.085H97.976a2.085,2.085,0,0,0,2.085-2.085V151.418A2.086,2.086,0,0,0,97.976,149.333Zm-2.084,12.508H4.169V153.5H95.891v8.338Z" transform="translate(0 -149.333)"/></g></g><g transform="translate(12.508 127.025)"><path class="a" d="M91.1,298.667H66.085a2.085,2.085,0,1,0,0,4.169H91.1a2.085,2.085,0,1,0,0-4.169Z" transform="translate(-64 -298.667)"/></g><g transform="translate(12.508 135.363)"><path class="a" d="M91.1,341.333H66.085a2.085,2.085,0,1,0,0,4.169H91.1a2.085,2.085,0,1,0,0-4.169Z" transform="translate(-64 -341.333)"/></g><g transform="translate(70.876 122.856)"><path class="a" d="M373.09,277.333h-4.169a6.261,6.261,0,0,0-6.254,6.254v4.169a6.261,6.261,0,0,0,6.254,6.254h4.169a6.261,6.261,0,0,0,6.254-6.254v-4.169A6.261,6.261,0,0,0,373.09,277.333Zm2.085,10.423a2.086,2.086,0,0,1-2.085,2.085h-4.169a2.085,2.085,0,0,1-2.085-2.085v-4.169a2.085,2.085,0,0,1,2.085-2.085h4.169a2.086,2.086,0,0,1,2.085,2.085Z" transform="translate(-362.667 -277.333)"/></g></g></svg>