<svg xmlns="http://www.w3.org/2000/svg" viewBox="0 0 32 33" width="15" height="15">
	<defs>
		<clipPath clipPathUnits="userSpaceOnUse" id="cp1">
			<path d="M-632 -468L118 -468L118 866L-632 866Z" />
		</clipPath>
	</defs>
	<style>
		tspan { white-space:pre }
		.close-shp0 { fill: #7b7b7b } 
	</style>
	<g id="Overlays - Home" clip-path="url(#cp1)">
		<g id="Group 358">
			<g id="signs">
				<g id="Group 69">
					<g id="Group 68">
						<path id="Path 262" fill-rule="evenodd" class="close-shp0" d="M31.79 16.46C31.79 25.25 24.68 32.36 15.89 32.36C7.11 32.36 0 25.25 0 16.46C0 7.68 7.11 0.57 15.89 0.57C24.68 0.57 31.79 7.68 31.79 16.46ZM29.3 16.46C29.3 9.05 23.31 3.05 15.89 3.05C8.48 3.05 2.48 9.05 2.48 16.46C2.48 23.88 8.48 29.87 15.89 29.87C23.31 29.87 29.3 23.88 29.3 16.46Z" />
					</g>
				</g>
				<g id="Group 71">
					<g id="Group 70">
						<path id="Path 263" class="close-shp0" d="M21.33 20.15L17.65 16.46L21.33 12.78C21.82 12.3 21.82 11.51 21.33 11.03C20.85 10.54 20.06 10.54 19.58 11.03L15.89 14.71L12.21 11.03C11.73 10.54 10.94 10.54 10.46 11.03C9.97 11.51 9.97 12.3 10.46 12.78L14.14 16.46L10.46 20.15C9.97 20.63 9.97 21.42 10.46 21.9C10.94 22.39 11.73 22.39 12.21 21.9L15.89 18.22L19.58 21.9C20.06 22.39 20.85 22.39 21.33 21.9C21.82 21.42 21.82 20.63 21.33 20.15Z" />
					</g>
				</g>
			</g>
		</g>
	</g>
</svg>