<svg xmlns="http://www.w3.org/2000/svg" viewBox="0 0 60 60" width="60" height="60">
	<defs>
		<clipPath clipPathUnits="userSpaceOnUse" id="cp1">
			<path d="M-435 -84L315 -84L315 1983L-435 1983Z" />
		</clipPath>
		<linearGradient id="grd1" gradientUnits="userSpaceOnUse"  x1="0.645" y1="29.549" x2="59.568" y2="29.549">
			<stop offset="0" stop-color="#ef5039"  />
			<stop offset="1" stop-color="#dd0d49"  />
		</linearGradient>
		<linearGradient id="grd2" gradientUnits="userSpaceOnUse"  x1="20.945" y1="30.446" x2="39.766" y2="30.446">
			<stop offset="0" stop-color="#fc4f35"  />
			<stop offset="1" stop-color="#c8013b"  />
		</linearGradient>
	</defs>
	<style>
		tspan { white-space:pre }
		.dollar-shp0 { fill: url(#grd1) } 
		.dollar-shp1 { fill: url(#grd2) } 
	</style>
	<g id="Play Screen" clip-path="url(#cp1)">
		<g id="Top Bar">
			<g id="Group 492">
				<g id="Group 493">
					<g id="Group 492">
						<path id="Path 2251" fill-rule="evenodd" class="dollar-shp0" d="M30.11 59.01C13.86 59.01 0.65 45.79 0.65 29.55C0.65 13.3 13.86 0.09 30.11 0.09C46.35 0.09 59.57 13.3 59.57 29.55C59.57 45.79 46.35 59.01 30.11 59.01ZM30.11 4.06C16.05 4.06 4.62 15.49 4.62 29.55C4.62 43.6 16.05 55.04 30.11 55.04C44.16 55.04 55.6 43.6 55.6 29.55C55.6 15.49 44.16 4.06 30.11 4.06Z" />
					</g>
					<path id="Path 2252" fill-rule="evenodd" class="dollar-shp1" d="M31.77 16.87C33.67 17.08 35.62 17.64 37.07 18.94C38.51 20.24 39.1 21.97 39.13 23.88L39.13 24.15L35.36 24.15L35.34 23.92C35.22 22.9 34.88 21.91 34.12 21.2C33.46 20.6 32.63 20.32 31.77 20.21L31.77 27.99C33.76 28.45 36.4 29.23 37.9 30.62C39.3 31.91 39.77 33.72 39.77 35.58C39.77 37.67 39.12 39.52 37.57 40.95C35.99 42.4 33.86 43.05 31.77 43.3L31.77 46.94L28.93 46.94L28.93 43.34C26.83 43.08 24.55 42.46 23.01 40.94C21.43 39.39 20.95 37.22 20.95 35.08L20.95 34.49L24.74 34.49L24.74 35.11C24.74 36.43 25.06 37.68 25.98 38.66C26.78 39.5 27.8 39.91 28.93 40.04L28.93 31.21C27.01 30.87 24.98 30.21 23.52 28.9C22.12 27.64 21.51 26.02 21.51 24.15C21.51 22.12 22.17 20.36 23.67 18.97C25.13 17.62 26.98 17.01 28.93 16.85L28.93 13.95L31.77 13.95L31.77 16.87ZM28.93 20.19C27.99 20.26 27.11 20.55 26.4 21.2C25.62 21.92 25.3 22.83 25.3 23.89C25.3 24.83 25.56 25.69 26.26 26.34C26.96 26.98 27.99 27.32 28.93 27.52L28.93 20.19ZM31.77 31.9L31.77 40.14C32.83 39.98 33.89 39.61 34.68 38.86C35.52 38.08 35.86 37.07 35.86 35.94C35.86 34.94 35.57 34.04 34.82 33.35C34.04 32.63 32.82 32.18 31.77 31.9Z" />
				</g>
			</g>
		</g>
	</g>
</svg>