<svg xmlns="http://www.w3.org/2000/svg" width="27.264" height="27.127" viewBox="0 0 27.264 27.127"><defs><style>.a{fill:#fff;}</style></defs><g transform="translate(0 -0.261)"><path class="a" d="M25.164,53.553a.679.679,0,0,0-.679.679v6.029A2.039,2.039,0,0,1,22.448,62.3H3.4a2.039,2.039,0,0,1-2.037-2.037V42.567A2.039,2.039,0,0,1,3.4,40.53H9.424a.679.679,0,1,0,0-1.358H3.4a3.4,3.4,0,0,0-3.4,3.4V60.262a3.4,3.4,0,0,0,3.4,3.4H22.448a3.4,3.4,0,0,0,3.4-3.4V54.232A.679.679,0,0,0,25.164,53.553Zm0,0" transform="translate(0 -36.269)"/><path class="a" d="M126.417,1.156a3.056,3.056,0,0,0-4.321,0L109.982,13.27a.679.679,0,0,0-.174.3l-1.593,5.751a.679.679,0,0,0,.836.836l5.751-1.593a.679.679,0,0,0,.3-.174L127.214,6.274a3.059,3.059,0,0,0,0-4.321ZM111.461,13.711,121.376,3.8l3.2,3.2-9.915,9.915Zm-.639,1.282,2.555,2.555-3.534.979Zm15.431-9.679-.72.72-3.2-3.2.72-.72a1.7,1.7,0,0,1,2.4,0l.8.8A1.7,1.7,0,0,1,126.254,5.314Zm0,0" transform="translate(-100.844)"/></g></svg>