<svg xmlns="http://www.w3.org/2000/svg" viewBox="0 0 32 32" width="32" height="32">
	<defs>
		<clipPath clipPathUnits="userSpaceOnUse" id="cp1">
			<path d="M-459 -1663L291 -1663L291 1207L-459 1207Z" />
		</clipPath>
	</defs>
	<style>
		tspan { white-space:pre }
		.edit-shp0 { fill: #7b7b7b } 
	</style>
	<g id="User Profile – Results – Interaction" clip-path="url(#cp1)">
		<g id="Group 481">
			<g id="Group 450">
				<g id="Group 449">
					<path id="edit-tools" fill-rule="evenodd" class="edit-shp0" d="M30.05 3.95C31.72 5.62 31.72 8.32 30.05 9.98L12.46 27.58C12.45 27.59 12.44 27.6 12.43 27.61C12.43 27.62 12.42 27.62 12.41 27.63C12.38 27.64 12.36 27.67 12.33 27.69C12.31 27.7 12.27 27.72 12.25 27.74C12.24 27.74 12.24 27.75 12.23 27.75C12.21 27.76 12.18 27.77 12.15 27.78C12.15 27.79 12.15 27.79 12.14 27.79L1.42 31.37C1.33 31.39 1.24 31.41 1.14 31.41C0.92 31.41 0.7 31.32 0.54 31.16C0.31 30.93 0.23 30.6 0.33 30.29L3.9 19.56C3.9 19.55 3.91 19.55 3.91 19.54C3.92 19.52 3.93 19.5 3.93 19.48C3.94 19.47 3.94 19.46 3.95 19.45C3.97 19.42 3.98 19.41 3.99 19.38C3.99 19.37 4 19.37 4 19.36C4.02 19.34 4.05 19.31 4.06 19.29C4.07 19.29 4.07 19.28 4.08 19.27L4.11 19.24L20.19 3.16L21.7 1.65C23.37 -0.02 26.07 -0.02 27.74 1.65L30.05 3.95ZM26.73 10.91L20.79 4.97L5.92 19.84L11.86 25.78L26.73 10.91ZM2.48 29.21L10.28 26.61L5.09 21.42L2.48 29.21ZM28.86 5.17L26.54 2.85C25.54 1.85 23.92 1.85 22.92 2.85L22 3.76L27.94 9.7L28.85 8.79C29.85 7.79 29.85 6.17 28.86 5.17Z" />
				</g>
			</g>
		</g>
	</g>
</svg>