<svg xmlns="http://www.w3.org/2000/svg" xmlns:xlink="http://www.w3.org/1999/xlink" width="39.184" height="39.184" viewBox="0 0 39.184 39.184"><defs><style>.a{fill-rule:evenodd;fill:url(#a);}</style><linearGradient id="a" x1="0.5" x2="0.5" y2="1" gradientUnits="objectBoundingBox"><stop offset="0" stop-color="#e4e7f4"/><stop offset="1" stop-color="#6b798c"/></linearGradient></defs><path class="a" d="M19.592,39.184A19.592,19.592,0,1,0,0,19.592,19.592,19.592,0,0,0,19.592,39.184Zm0-2.351A17.241,17.241,0,1,0,2.351,19.592,17.241,17.241,0,0,0,19.592,36.833Zm1.422-8.621V19.591h2.55L23.9,16.62H21.014l0-1.487c0-.775.079-1.19,1.272-1.19h1.594V10.972H21.334c-3.064,0-4.142,1.441-4.142,3.865V16.62h-1.91v2.971h1.91v8.621Zm0,0"/></svg>