<svg xmlns="http://www.w3.org/2000/svg" width="30.775" height="30.775" viewBox="0 0 30.775 30.775"><defs><style>.a{fill:#fff;}</style></defs><path class="a" d="M30.716,4.108a1.053,1.053,0,0,0-.88-.705l-2.209-.255L27.372.94a1.061,1.061,0,0,0-1.8-.629L21.2,4.677a1.055,1.055,0,0,0-.3.872l.316,2.737-.973.973a12.248,12.248,0,1,0,1.275,1.275l.973-.973,2.737.316a1.055,1.055,0,0,0,.872-.3l4.366-4.366A1.053,1.053,0,0,0,30.716,4.108ZM19.627,25.918a10.444,10.444,0,1,1-.665-15.38l-1.649,1.649a8.123,8.123,0,1,0,1.275,1.275l1.649-1.649A10.458,10.458,0,0,1,19.627,25.918Zm-7.861-6.908a.9.9,0,0,0,1.275,0l1.2-1.2a2.121,2.121,0,1,1-1.275-1.275l-1.2,1.2A.9.9,0,0,0,11.766,19.009Zm2.543-3.818a3.925,3.925,0,1,0,1.275,1.275L17.3,14.748a6.319,6.319,0,1,1-1.275-1.275ZM25.077,8.044l-2.1-.243-.243-2.1,3.026-3.026.153,1.321a.989.989,0,0,0,.872.872l1.321.152Zm0,0" transform="translate(-0.001 0.001)"/></svg>