<svg xmlns="http://www.w3.org/2000/svg" viewBox="0 0 46 57" width="30" height="30">
	<defs>
		<clipPath clipPathUnits="userSpaceOnUse" id="cp1">
			<path d="M-474 -83L276 -83L276 1860L-474 1860Z" />
		</clipPath>
		<linearGradient id="grd1" gradientUnits="userSpaceOnUse"  x1="0" y1="28.4" x2="45.782" y2="28.4">
			<stop offset="0" stop-color="#fc4f35"  />
			<stop offset="1" stop-color="#c8013b"  />
		</linearGradient>
	</defs>
	<style>
		tspan { white-space:pre }
		.moneyShp0 { fill: url(#grd1) } 
		.moneyShp1 { fill: #ffffff } 
		.moneyShp2 { fill: #fdcc36 } 
	</style>
	<g id="User Profile – Setting" clip-path="url(#cp1)">
		<g id="Top Bar">
			<g id="Group 486">
				<g id="Group 485">
					<path id="Path 2239" class="moneyShp0" d="M30.23 12.57C32.43 9.8 33.82 6.15 33.82 3.2C33.82 -2.35 28.93 1.01 22.89 1.01C16.86 1.01 11.97 -2.35 11.97 3.2C11.97 6.15 13.35 9.8 15.55 12.57C6.51 17.74 0 31.52 0 41.72C0 54.5 10.25 56.8 22.89 56.8C35.53 56.8 45.78 54.5 45.78 41.72C45.78 31.52 39.27 17.74 30.23 12.57Z" />
					<path id="Path 2240" class="moneyShp1" d="M21.24 47.09L21.24 44.48C19.89 44.32 18.6 43.88 17.74 43.26L17.2 42.87L18.41 39.5L19.34 40.12C20.24 40.72 21.39 41.07 22.5 41.07C23.79 41.07 24.63 40.43 24.63 39.46C24.63 38.8 24.35 38.08 22.32 37.26C21.31 36.87 20.03 36.3 19.09 35.44C18.09 34.53 17.6 33.42 17.6 32.07C17.6 30.89 17.99 29.81 18.72 28.95C19.39 28.17 20.32 27.6 21.42 27.3L21.42 24.57L24.74 24.57L24.74 27.09C25.8 27.22 26.74 27.53 27.59 28.03L28.23 28.4L26.97 31.72L26.08 31.21C25.69 30.99 24.78 30.47 23.33 30.47C22.2 30.47 21.52 30.96 21.52 31.77C21.52 32.46 21.9 32.93 24.12 33.85C25.67 34.48 26.78 35.21 27.49 36.07C28.23 36.95 28.58 38 28.58 39.28C28.58 40.5 28.17 41.62 27.4 42.54C26.69 43.36 25.72 43.96 24.58 44.29L24.58 47.09L21.24 47.09Z" />
					<g id="Group 484">
						<path id="Path 2241" class="moneyShp2" d="M22.89 15.81C18.23 15.81 14.83 15.49 12.65 15.2C11.15 14.99 10.25 13.4 10.86 12L10.86 12C11.27 11.05 12.28 10.49 13.3 10.64C15.09 10.9 18.27 11.24 22.89 11.24C27.52 11.24 30.7 10.9 32.48 10.64C33.51 10.49 34.51 11.05 34.92 12L34.92 12C35.53 13.4 34.64 14.99 33.13 15.2C30.95 15.49 27.55 15.81 22.89 15.81Z" />
					</g>
					<path id="Path 2242" class="moneyShp2" d="M6.22 6.05L10.12 9.85C10.64 10.37 10.65 11.22 10.14 11.75C9.79 12.1 9.29 12.22 8.84 12.11L3.57 10.72C2.09 10.33 1.2 8.81 1.59 7.33C1.98 5.84 3.5 4.96 4.99 5.35C5.46 5.48 5.89 5.73 6.22 6.05Z" />
					<path id="Path 2243" class="moneyShp2" d="M5.83 12.52L8.9 12.74C9.63 12.8 10.18 13.43 10.13 14.16C10.09 14.7 9.73 15.14 9.26 15.31L6.36 16.36C5.33 16.73 4.19 16.2 3.82 15.17C3.44 14.14 3.98 13 5.01 12.63C5.27 12.53 5.56 12.5 5.83 12.52Z" />
				</g>
			</g>
		</g>
	</g>
</svg>