<svg xmlns="http://www.w3.org/2000/svg" viewBox="0 0 37 36" width="37" height="36">
	<defs>
		<clipPath clipPathUnits="userSpaceOnUse" id="cp1">
			<path d="M-493 -1358L257 -1358L257 1512L-493 1512Z" />
		</clipPath>
	</defs>
	<style>
		tspan { white-space:pre }
		.happy-shp0 { fill: #ffffff } 
	</style>
	<g id="User Profile – Results – Interaction" clip-path="url(#cp1)">
		<g id="Group 481">
			<g id="Group 441">
				<g id="surface1">
					<path id="Path 273" fill-rule="evenodd" class="happy-shp0" d="M36.81 17.95C36.81 22.75 34.95 27.26 31.56 30.65C28.16 34.04 23.66 35.91 18.86 35.91C14.06 35.91 9.55 34.04 6.16 30.65C2.77 27.26 0.9 22.75 0.9 17.95C0.9 13.16 2.77 8.65 6.16 5.26C9.55 1.87 14.06 0 18.86 0C23.66 0 28.16 1.87 31.56 5.26C34.95 8.65 36.81 13.16 36.81 17.95ZM9.11 11.19L10.4 12.45L10.1 14.23C10.03 14.62 10.19 15.02 10.52 15.26C10.7 15.39 10.92 15.46 11.14 15.46C11.3 15.46 11.47 15.42 11.63 15.34L13.23 14.5L14.83 15.34C14.98 15.42 15.15 15.46 15.32 15.46C15.9 15.46 16.37 14.99 16.37 14.41C16.37 14.33 16.36 14.25 16.34 14.17L16.05 12.45L17.34 11.19C17.63 10.91 17.73 10.49 17.61 10.11C17.48 9.73 17.15 9.45 16.76 9.39L14.97 9.13L14.17 7.51C13.99 7.15 13.63 6.93 13.23 6.93C12.82 6.93 12.46 7.15 12.28 7.51L11.48 9.13L9.69 9.39C9.3 9.45 8.97 9.73 8.84 10.11C8.72 10.49 8.82 10.91 9.11 11.19ZM28.36 20.21C28.36 19.63 27.89 19.16 27.31 19.16L10.41 19.16C9.83 19.16 9.36 19.63 9.36 20.21C9.36 25.45 13.62 29.71 18.86 29.71C24.1 29.71 28.36 25.45 28.36 20.21ZM28.87 10.11C28.75 9.73 28.42 9.45 28.03 9.39L26.24 9.13L25.44 7.51C25.26 7.15 24.89 6.93 24.49 6.93C24.09 6.93 23.73 7.15 23.55 7.51L22.75 9.13L20.96 9.39C20.57 9.45 20.24 9.73 20.11 10.11C19.99 10.49 20.09 10.91 20.38 11.19L21.67 12.45L21.37 14.23C21.3 14.62 21.46 15.02 21.79 15.26C21.97 15.39 22.19 15.46 22.4 15.46C22.57 15.46 22.74 15.42 22.89 15.34L24.49 14.5L26.09 15.34C26.25 15.42 26.42 15.46 26.59 15.46C27.17 15.46 27.64 14.99 27.64 14.41C27.64 14.33 27.63 14.25 27.61 14.17L27.32 12.45L28.61 11.19C28.9 10.91 29 10.49 28.87 10.11Z" />
				</g>
			</g>
		</g>
	</g>
</svg>