<svg xmlns="http://www.w3.org/2000/svg" xmlns:xlink="http://www.w3.org/1999/xlink" width="53.827" height="37.853" viewBox="0 0 53.827 37.853"><defs><style>.a{fill:url(#a);}.b{filter:url(#b);}</style><linearGradient id="a" y1="0.5" x2="1" y2="0.5" gradientUnits="objectBoundingBox"><stop offset="0" stop-color="#0db6ff"/><stop offset="1" stop-color="#49b97d"/></linearGradient><filter id="b" x="0" y="0" width="53.827" height="37.853" filterUnits="userSpaceOnUse"><feOffset dy="3" input="SourceAlpha"/><feGaussianBlur stdDeviation="3" result="c"/><feFlood flood-opacity="0.161"/><feComposite operator="in" in2="c"/><feComposite in="SourceGraphic"/></filter></defs><g transform="translate(9 6)"><g class="b" transform="matrix(1, 0, 0, 1, -9, -6)"><path class="a" d="M32.742,0c1.028,5.644,2.034,11.287,3.085,17.068-1.439.251-2.719.48-4.136.731-.388-2.056-.731-3.953-1.12-6.055-2.079.366-4.113.708-6.215,1.074.366,2.079.685,4,1.005,5.849-4.113,2.536-10.716.754-10.853-2.993,1.942-.366,3.907-.731,5.849-1.12-.183-.982-.594-.937-1.12-.845-2.331.366-4.684.868-7.037,1.005-2.422.137-4.958-2.1-4.89-4.09C11.264,9.916,15.24,9.208,19.193,8.5c-.046-1.12-.64-.96-1.165-.868-3.7.663-7.426,1.28-11.127,1.988A6.088,6.088,0,0,1,0,6.42V5.666C7.4,4.341,14.806,2.993,22.323,1.645c.411,2.171.777,4.113,1.165,6.123,2.193-.411,4.181-.777,6.192-1.142C29.315,4.5,28.995,2.6,28.675.663" transform="translate(9 6)"/></g></g></svg>