<svg xmlns="http://www.w3.org/2000/svg" viewBox="0 0 31 31" width="15" height="15">
	<defs>
		<clipPath clipPathUnits="userSpaceOnUse" id="cp1">
			<path d="M-640 -376L110 -376L110 958L-640 958Z" />
		</clipPath>
	</defs>
	<style>
		tspan { white-space:pre }
		.help-shp0 { fill: #ffffff } 
	</style>
	<g id="Home" clip-path="url(#cp1)">
		<g id="interface">
			<g id="Group 73">
				<g id="Group 72">
					<path id="Ellipse 43" class="help-shp0" d="M15.15 23.88C14.33 23.88 13.67 23.21 13.67 22.4C13.67 21.58 14.33 20.92 15.15 20.92C15.97 20.92 16.63 21.58 16.63 22.4C16.63 23.21 15.97 23.88 15.15 23.88Z" />
					<path id="Path 265" fill-rule="evenodd" class="help-shp0" d="M30.3 15.15C30.3 23.52 23.52 30.3 15.15 30.3C6.78 30.3 0 23.52 0 15.15C0 6.78 6.78 0 15.15 0C23.52 0 30.3 6.78 30.3 15.15ZM27.93 15.15C27.93 8.08 22.21 2.37 15.15 2.37C8.08 2.37 2.37 8.08 2.37 15.15C2.37 22.21 8.08 27.93 15.15 27.93C22.21 27.93 27.93 22.21 27.93 15.15Z" />
					<path id="Path 266" class="help-shp0" d="M15.15 7.6C12.54 7.6 10.41 9.73 10.41 12.34C10.41 12.99 10.94 13.52 11.6 13.52C12.25 13.52 12.78 12.99 12.78 12.34C12.78 11.03 13.84 9.97 15.15 9.97C16.45 9.97 17.52 11.03 17.52 12.34C17.52 13.64 16.45 14.7 15.15 14.7C14.49 14.7 13.97 15.23 13.97 15.89L13.97 18.85C13.97 19.5 14.49 20.03 15.15 20.03C15.8 20.03 16.33 19.5 16.33 18.85L16.33 16.92C18.37 16.39 19.88 14.54 19.88 12.34C19.88 9.73 17.76 7.6 15.15 7.6Z" />
				</g>
			</g>
		</g>
	</g>
</svg>