<svg xmlns="http://www.w3.org/2000/svg" viewBox="0 0 91 88">
	<defs>
		<clipPath clipPathUnits="userSpaceOnUse" id="cp1">
			<path d="M-330 -519L420 -519L420 815L-330 815Z" />
		</clipPath>
	</defs>
	<!-- <style>
		tspan { white-space:pre }
		.home-shp0 { fill: #c40019 } 
	</style> -->
	<g id="Overlays - Home" clip-path="url(#cp1)">
		<g id="Group 358">
			<g id="home">
				<g id="Group 11">
					<g id="Group 10">
						<path id="Path 226" class="home-shp0" d="M89.42 39.4L48.61 2.22C46.82 0.59 44.12 0.59 42.33 2.22L1.53 39.4C0.09 40.71 -0.38 42.72 0.32 44.53C1.02 46.35 2.73 47.51 4.67 47.51L11.19 47.51L11.19 84.76C11.19 86.24 12.38 87.44 13.86 87.44L36.22 87.44C37.7 87.44 38.9 86.24 38.9 84.76L38.9 62.15L52.04 62.15L52.04 84.77C52.04 86.24 53.24 87.44 54.72 87.44L77.08 87.44C78.56 87.44 79.76 86.24 79.76 84.77L79.76 47.51L86.27 47.51C88.22 47.51 89.92 46.34 90.62 44.53C91.32 42.72 90.85 40.71 89.42 39.4Z" />
					</g>
				</g>
				<g id="Group 13">
					<g id="Group 12">
						<path id="Path 227" class="home-shp0" d="M79.06 6.34L61.1 6.34L81.73 25.1L81.73 9.01C81.73 7.54 80.54 6.34 79.06 6.34Z" />
					</g>
				</g>
			</g>
		</g>
	</g>
</svg>