<svg xmlns="http://www.w3.org/2000/svg" viewBox="0 0 62 60" width="62" height="60">
	<defs>
		<clipPath clipPathUnits="userSpaceOnUse" id="cp1">
			<path d="M-88 -1320L662 -1320L662 1550L-88 1550Z" />
		</clipPath>
	</defs>
	<style>
		tspan { white-space:pre }
	</style>
	<g id="User Profile – Results – Interaction" clip-path="url(#cp1)">
		<g id="Group 481">
			<path id="Path 274" fill-rule="evenodd" class="like-shp0" d="M58.85 41.02C59.24 41.8 59.44 42.66 59.44 43.56C59.44 45.76 58.18 47.7 56.31 48.65C56.89 49.8 57.05 51.14 56.76 52.47C56.19 55.04 53.77 56.9 51 56.9L27.68 56.9C25.91 56.9 23.07 56.33 20.95 55.24C20.07 57.69 17.72 59.44 14.98 59.44L7.35 59.44C3.85 59.44 1 56.6 1 53.09L1 32.76C1 29.26 3.85 26.41 7.35 26.41L20.06 26.41C20.76 26.41 21.33 26.98 21.33 27.68L21.33 28.17L21.63 28.01L28.95 12.16L28.95 3.54C28.95 3.15 29.13 2.79 29.43 2.55C29.51 2.49 31.4 1 34.03 1C36.97 1 41.66 5.65 41.66 11.16C41.66 14.64 40.41 18.97 39.63 21.33L55.33 21.33C58.75 21.33 61.66 23.86 61.96 27.09C62.12 28.9 61.52 30.64 60.33 31.94C61.38 32.99 61.98 34.41 61.98 35.94C61.98 38.14 60.72 40.08 58.85 41.02ZM59.44 35.94C59.44 34.76 58.78 33.68 57.7 33.13C57.3 32.92 57.03 32.51 57.01 32.05C57 31.59 57.23 31.16 57.62 30.92C58.86 30.15 59.56 28.77 59.43 27.32C59.25 25.38 57.45 23.87 55.33 23.87L37.84 23.87C37.43 23.87 37.04 23.66 36.8 23.32C36.56 22.97 36.51 22.53 36.66 22.15C36.68 22.08 39.12 15.64 39.12 11.16C39.12 7 35.43 3.54 34.03 3.54C32.94 3.54 32.02 3.94 31.49 4.23L31.49 12.43C31.49 12.62 31.45 12.8 31.38 12.97L23.75 29.48C23.63 29.75 23.42 29.96 23.17 30.09L20.63 31.36C20.23 31.55 19.76 31.53 19.39 31.3C19.02 31.07 18.79 30.66 18.79 30.22L18.79 28.95L7.35 28.95C5.25 28.95 3.54 30.66 3.54 32.76L3.54 53.09C3.54 55.19 5.25 56.9 7.35 56.9L14.98 56.9C17.08 56.9 18.79 55.19 18.79 53.09C18.79 52.58 19.1 52.11 19.57 51.92C20.04 51.72 20.59 51.83 20.96 52.19C22.16 53.39 25.62 54.36 27.68 54.36L51.01 54.36C52.59 54.36 53.97 53.33 54.28 51.92C54.53 50.78 54.2 49.67 53.36 48.89C53 48.55 52.87 48.03 53.03 47.56C53.18 47.09 53.6 46.76 54.09 46.7C55.69 46.51 56.9 45.17 56.9 43.56C56.9 42.69 56.54 41.87 55.9 41.26C55.54 40.92 55.41 40.41 55.56 39.94C55.72 39.47 56.14 39.13 56.63 39.07C58.23 38.89 59.44 37.54 59.44 35.94Z" />
		</g>
	</g>
</svg>