<svg xmlns="http://www.w3.org/2000/svg" xmlns:xlink="http://www.w3.org/1999/xlink" width="41.099" height="39.858" viewBox="0 0 41.099 39.858"><defs><style>.a{fill:#c8eb4f;}.b{fill:url(#a);}</style><linearGradient id="a" x1="0.5" x2="0.5" y2="1" gradientUnits="objectBoundingBox"><stop offset="0" stop-color="#9caec7"/><stop offset="1" stop-color="#100f0f"/></linearGradient></defs><path class="a" d="M21.706,0H7.232L0,12.53,7.232,25.06H21.706l7.232-12.53Z" transform="translate(5.73 8.939)"/><path class="b" d="M820.972,137.49c-.3-9.651-5.424-19.91-18.922-19.91s-18.621,10.258-18.922,19.909a2.615,2.615,0,0,0-.017,4.836v2.984a1,1,0,0,0,.191.59l2.227,3.082v3.507a1.008,1.008,0,0,0,.508.874l2.313,1.322v.135a2.622,2.622,0,0,0,2.619,2.619h3.223a1.008,1.008,0,0,0,1.007-1.007v-13.7a1.008,1.008,0,0,0-1.007-1.007h-3.223a2.622,2.622,0,0,0-2.619,2.619v.307l-2.313,1.322a.919.919,0,0,0-.131.091l-.78-1.08v-2.658a2.614,2.614,0,0,0,.018-4.821,27.566,27.566,0,0,1,.409-3.857,15.364,15.364,0,0,1,.7-1.514,12.573,12.573,0,0,1,3.628-5.08,14.441,14.441,0,0,1,5.677-2.812,27.283,27.283,0,0,1,12.981,0,14.441,14.441,0,0,1,5.677,2.812,12.45,12.45,0,0,1,3.63,5.1,15.986,15.986,0,0,1,.7,1.506,27.177,27.177,0,0,1,.411,3.84,2.615,2.615,0,0,0,.017,4.822v2.658l-.78,1.08a.919.919,0,0,0-.131-.091l-2.313-1.322v-.307a2.622,2.622,0,0,0-2.619-2.619h-3.223a1.008,1.008,0,0,0-1.007,1.007v13.7a1.008,1.008,0,0,0,1.007,1.007h3.223a2.622,2.622,0,0,0,2.619-2.619v-.135l2.313-1.322a1.008,1.008,0,0,0,.508-.874V148.98L820.8,145.9a1,1,0,0,0,.191-.59v-2.984a2.615,2.615,0,0,0-.015-4.836Zm-36.249,2.421a.6.6,0,1,1-.913-.519,1,1,0,0,0,.617,0A.605.605,0,0,1,784.723,139.91Zm30.06-14.969a17.043,17.043,0,0,0-5.724-2.647,29.284,29.284,0,0,0-14.02,0,17.047,17.047,0,0,0-5.724,2.647c2.9-3.549,7.177-5.347,12.734-5.347S811.883,121.392,814.784,124.942Zm5.2,14.364a.6.6,0,1,1-.6.6A.605.605,0,0,1,819.98,139.306Zm-31.9,9.771-.54-.748v-.9l.806-.461v5.393l-.806-.461V150.63a.938.938,0,0,0,.313-.147A1.008,1.008,0,0,0,788.084,149.077Zm2.885-5.338h2.216v11.685h-2.216a.605.605,0,0,1-.6-.6V144.343A.605.605,0,0,1,790.969,143.738Zm25.272,6.745a.938.938,0,0,0,.313.147V151.9l-.806.461V146.97l.806.461v.9l-.54.748A1.008,1.008,0,0,0,816.241,150.483Zm-3.111,4.94h-2.216V143.738h2.216a.605.605,0,0,1,.6.6v10.476A.605.605,0,0,1,813.13,155.423Z" transform="translate(-781.5 -117.58)"/></svg>