<svg xmlns="http://www.w3.org/2000/svg" xmlns:xlink="http://www.w3.org/1999/xlink" width="186.024" height="32.32" viewBox="0 0 186.024 32.32"><defs><style>.a{fill:url(#a);}.b{fill:url(#b);}.c{fill:url(#c);}.d{fill:url(#d);}.e{fill:url(#e);}.f{fill:url(#f);}.g{fill:url(#g);}</style><linearGradient id="a" y1="0.5" x2="1" y2="0.5" gradientUnits="objectBoundingBox"><stop offset="0" stop-color="#0db6ff"/><stop offset="1" stop-color="#49b97d"/></linearGradient><linearGradient id="b" x1="-6.7" y1="0.5" x2="1.467" y2="0.5" gradientUnits="objectBoundingBox"><stop offset="0" stop-color="#100f0f"/><stop offset="1" stop-color="#6b798c"/></linearGradient><linearGradient id="c" x1="-4.983" y1="0.503" x2="2.987" y2="0.503" xlink:href="#b"/><linearGradient id="d" x1="-7.665" y1="0.5" x2="-0.094" y2="0.5" xlink:href="#b"/><linearGradient id="e" x1="-0.272" y1="0.499" x2="7.462" y2="0.499" xlink:href="#b"/><linearGradient id="f" x1="-2.222" y1="0.5" x2="6.887" y2="0.5" xlink:href="#b"/><linearGradient id="g" x1="-2.559" y1="0.5" x2="3.733" y2="0.5" xlink:href="#b"/></defs><path class="a" d="M53.3,0c1.674,9.188,3.311,18.375,5.022,27.786-2.343.409-4.426.781-6.733,1.19-.632-3.348-1.19-6.435-1.823-9.857-3.385.6-6.7,1.153-10.118,1.748.6,3.385,1.116,6.51,1.637,9.523-6.7,4.129-17.446,1.228-17.669-4.873,3.162-.6,6.361-1.19,9.523-1.823-.3-1.6-.967-1.525-1.823-1.376-3.794.6-7.625,1.413-11.457,1.637-3.943.223-8.072-3.422-7.96-6.658,6.435-1.153,12.907-2.306,19.343-3.459-.074-1.823-1.042-1.562-1.9-1.413C23.323,13.5,17.26,14.507,11.234,15.66,6.212,16.627,2.567,14.73,0,10.452V9.225C12.052,7.067,24.1,4.873,36.342,2.678c.67,3.534,1.265,6.7,1.9,9.969,3.571-.67,6.807-1.265,10.08-1.86-.6-3.459-1.116-6.547-1.637-9.709"/><g transform="translate(67.625 8.239)"><path class="b" d="M407.1,37.891V22.3c2.976,0,5.914-.149,8.816.037a3.746,3.746,0,0,1,1.376,7.179c2.232,1.042,3.311,2.678,2.715,5.1-.632,2.418-2.6,3.087-4.724,3.236C412.568,38.039,409.89,37.891,407.1,37.891Zm3.125-2.567c2.195-.521,4.538.781,6.361-1.153a1.4,1.4,0,0,0-.037-1.971c-1.86-1.823-4.166-.67-6.361-1.042C410.225,32.609,410.225,33.873,410.225,35.324Zm0-6.658c2.083-.446,4.241.744,5.84-1.042a1.4,1.4,0,0,0-.112-1.971c-1.748-1.451-3.794-.484-5.728-.744C410.225,26.211,410.225,27.289,410.225,28.666Z" transform="translate(-323.294 -22.211)"/><path class="c" d="M351.1,22.2c2.79,0,5.542-.149,8.258.037a4.659,4.659,0,0,1,4.538,3.534c.67,2.827.074,5.282-2.79,6.882,1.116,1.674,2.195,3.311,3.385,5.1h-3.534c-.856-1.451-1.785-2.976-2.678-4.5h-4.017v4.464h-3.087C351.1,32.695,351.1,27.524,351.1,22.2Zm3.05,8.369c2.343-.409,4.947.967,6.658-1.525a2.473,2.473,0,0,0-.223-3.162c-1.86-1.823-4.2-.856-6.435-1.042Z" transform="translate(-288.125 -22.149)"/><path class="d" d="M465.287,37.986H462.2V22.4h2.976v7.551c2.567-2.79,4.8-5.245,6.956-7.551h3.683c-2.083,2.269-3.98,4.389-5.952,6.547,2.12,3.013,4.241,5.952,6.435,9.039h-3.757c-1.562-2.12-3.2-4.315-4.8-6.472C465.1,33.038,464.878,35.419,465.287,37.986Z" transform="translate(-357.899 -22.306)"/><path class="e" d="M195.6,38.086h-3.013V31.8h-7.7v6.249H181.8V22.5h2.976v6.472h7.737V22.5h3.05C195.6,27.633,195.6,32.766,195.6,38.086Z" transform="translate(-181.8 -22.369)"/><path class="f" d="M253.417,35.27v2.678H241.7V22.4h11.494v2.529h-8.332v3.831h7.477V31.4h-7.477V35.27Z" transform="translate(-219.419 -22.306)"/><path class="g" d="M305.362,37.96h-3.311c-.484-1.116-.967-2.232-1.451-3.311H293.05c-.484,1.116-.967,2.195-1.451,3.273h-3.2c2.343-5.282,4.612-10.452,6.882-15.623h3.273C300.787,27.433,303.056,32.6,305.362,37.96Zm-5.877-6.026c-.893-2.157-1.711-4.129-2.641-6.324-.93,2.232-1.785,4.2-2.678,6.324Z" transform="translate(-248.748 -22.244)"/></g></svg>