<svg xmlns="http://www.w3.org/2000/svg" xmlns:xlink="http://www.w3.org/1999/xlink" width="44" height="31.512" viewBox="0 0 44 31.512"><defs><style>.a{fill:#c8eb4f;}.b{fill:url(#a);}</style><linearGradient id="a" x1="0.5" x2="0.5" y2="1.484" gradientUnits="objectBoundingBox"><stop offset="0" stop-color="#9caec7"/><stop offset="1" stop-color="#100f0f"/></linearGradient></defs><path class="a" d="M27.294,0H9.094L0,15.756,9.094,31.512h18.2l9.094-15.756Z" transform="translate(3.456)"/><path class="b" d="M43.794,10.694,36.854.455A1,1,0,0,0,36,0H7.958A1,1,0,0,0,7.1.455L.165,10.694a1.056,1.056,0,0,0-.057,1.081,1.241,1.241,0,0,0,.228.284h0l20.933,18.2a.961.961,0,0,0,1.365,0l20.933-18.2h0a.568.568,0,0,0,.228-.284A.856.856,0,0,0,43.794,10.694ZM33.839,2.1,28.89,9.386,24,2.1Zm-6.883,8.134h-9.9l4.949-7.281ZM20.017,2.1,15.068,9.386,10.119,2.1ZM8.071,2.787l5.006,7.452H3.009ZM3.862,12.344H14.328L19.5,25.938ZM22.008,26.507,16.6,12.287H27.468Zm2.5-.569,5.233-13.595h10.41Zm6.371-15.7,5.006-7.395,5.063,7.395Z" transform="translate(0.014 0.91)"/></svg>