<svg xmlns="http://www.w3.org/2000/svg" viewBox="0 0 190 82" width="190" height="82">
	<defs>
		<clipPath clipPathUnits="userSpaceOnUse" id="cp1">
			<path d="M-107 -628L643 -628L643 706L-107 706Z" />
		</clipPath>
	</defs>
	<style>
		tspan { white-space:pre }
		.messagePink-shp0 { fill: #e8505b } 
		.messagePink-shp1 { fill: #f5f5f5 } 
	</style>
	<g id="Music Creators – 1" clip-path="url(#cp1)">
		<g id="Group 560">
			<g id="Group 553">
				<path id="Path 2507" class="messagePink-shp0" d="M182.43 0.92L7.33 0.92C3.55 0.92 0.49 3.99 0.49 7.77L0.49 62.09C0.49 65.87 3.55 68.93 7.33 68.93L20.38 68.93C21.43 74.61 22.66 81.76 22.66 81.76L34.47 68.93L182.43 68.93C186.21 68.93 189.28 65.87 189.28 62.09L189.28 7.77C189.28 3.99 186.21 0.92 182.43 0.92Z" />
				<g id="Group 552">
					<g id="Group 548">
						<path id="Path 2508" class="messagePink-shp1" d="M110.19 30.39C110.19 30.5 89.35 30.59 63.65 30.59C37.94 30.59 17.1 30.5 17.1 30.39C17.1 30.28 37.94 30.18 63.65 30.18C89.35 30.18 110.19 30.28 110.19 30.39Z" />
					</g>
					<g id="Group 549">
						<path id="Path 2509" class="messagePink-shp1" d="M110.19 22.04C110.19 22.15 89.35 22.24 63.65 22.24C37.94 22.24 17.1 22.15 17.1 22.04C17.1 21.93 37.94 21.84 63.65 21.84C89.35 21.84 110.19 21.93 110.19 22.04Z" />
					</g>
					<g id="Group 550">
						<path id="Path 2510" class="messagePink-shp1" d="M110.19 38.64C110.19 38.76 89.35 38.85 63.65 38.85C37.94 38.85 17.1 38.76 17.1 38.64C17.1 38.53 37.94 38.44 63.65 38.44C89.35 38.44 110.19 38.53 110.19 38.64Z" />
					</g>
					<g id="Group 551">
						<path id="Path 2511" class="messagePink-shp1" d="M78.08 47.2C78.08 47.31 64.42 47.4 47.59 47.4C30.75 47.4 17.1 47.31 17.1 47.2C17.1 47.08 30.75 47 47.59 47C64.42 47 78.08 47.08 78.08 47.2Z" />
					</g>
				</g>
			</g>
		</g>
	</g>
</svg>