<svg xmlns="http://www.w3.org/2000/svg" viewBox="0 0 187 81" width="187" height="81">
	<defs>
		<clipPath clipPathUnits="userSpaceOnUse" id="cp1">
			<path d="M-455 -635L295 -635L295 699L-455 699Z" />
		</clipPath>
	</defs>
	<style>
		tspan { white-space:pre }
		.messageGray-shp0 { fill: #455a64 } 
		.messageGray-shp1 { fill: #f5f5f5 } 
	</style>
	<g id="Music Creators – 1" clip-path="url(#cp1)">
		<g id="Group 560">
			<g id="Group 559">
				<path id="Path 2512" class="messageGray-shp0" d="M182.21 0.36L5.67 0.36C3.03 0.36 0.88 2.5 0.88 5.15L0.88 62.61C0.88 65.26 3.03 67.4 5.67 67.4L133.89 67.4L145.56 80.08C145.56 80.08 146.78 72.96 147.81 67.4L182.21 67.4C184.85 67.4 187 65.26 187 62.61L187 5.15C187 2.5 184.85 0.36 182.21 0.36Z" />
				<g id="Group 558">
					<g id="Group 554">
						<path id="Path 2513" class="messageGray-shp1" d="M175.28 29.99C175.28 30.1 154.44 30.19 128.74 30.19C103.03 30.19 82.2 30.1 82.2 29.99C82.2 29.88 103.03 29.79 128.74 29.79C154.44 29.79 175.28 29.88 175.28 29.99Z" />
					</g>
					<g id="Group 555">
						<path id="Path 2514" class="messageGray-shp1" d="M175.28 21.64C175.28 21.75 154.44 21.84 128.74 21.84C103.03 21.84 82.2 21.75 82.2 21.64C82.2 21.53 103.03 21.44 128.74 21.44C154.44 21.44 175.28 21.53 175.28 21.64Z" />
					</g>
					<g id="Group 556">
						<path id="Path 2515" class="messageGray-shp1" d="M175.28 38.24C175.28 38.36 154.44 38.45 128.74 38.45C103.03 38.45 82.2 38.36 82.2 38.24C82.2 38.13 103.03 38.04 128.74 38.04C154.44 38.04 175.28 38.13 175.28 38.24Z" />
					</g>
					<g id="Group 557">
						<path id="Path 2516" class="messageGray-shp1" d="M143.17 46.8C143.17 46.91 129.52 47 112.68 47C95.84 47 82.2 46.91 82.2 46.8C82.2 46.69 95.84 46.6 112.68 46.6C129.52 46.6 143.17 46.69 143.17 46.8Z" />
					</g>
				</g>
			</g>
		</g>
	</g>
</svg>