<svg xmlns="http://www.w3.org/2000/svg" viewBox="0 0 45 69" width="45" height="69">
	<defs>
		<clipPath clipPathUnits="userSpaceOnUse" id="cp1">
			<path d="M-106 -614L644 -614L644 720L-106 720Z" />
		</clipPath>
	</defs>
	<style>
		tspan { white-space:pre }
		.multimedia-shp0 { fill: #ffffff } 
	</style>
	<g id="Leaderboard - Home" clip-path="url(#cp1)">
		<g id="multimedia">
			<path id="Path 234" class="multimedia-shp0" d="M33.98 0.51C39.77 0.51 44.46 5.19 44.46 10.98C44.46 16.76 39.77 21.45 33.98 21.45C28.2 21.45 23.51 16.76 23.51 10.98C23.51 5.19 28.2 0.51 33.98 0.51Z" />
			<path id="Path 235" class="multimedia-shp0" d="M11.31 39.96C12.19 39.96 12.96 39.56 13.49 38.95L31.12 22.72C27.63 21.87 24.72 19.49 23.15 16.34L9.23 34.88C8.71 35.6 8.41 36.22 8.41 37.05C8.41 38.65 9.71 39.96 11.31 39.96Z" />
			<path id="Path 236" class="multimedia-shp0" d="M2.84 55.56C8.7 60.06 17.7 51.54 18.04 51.21C18.14 51.13 27.64 42.76 32.07 47.72C32.99 48.75 33.38 49.94 33.25 51.36C32.79 56.64 25.46 63.48 22.68 65.66C21.98 66.21 21.86 67.22 22.41 67.92C22.72 68.32 23.19 68.53 23.67 68.53C24.01 68.53 24.36 68.42 24.65 68.19C25.11 67.83 35.76 59.39 36.45 51.65C36.65 49.32 35.98 47.28 34.46 45.58C32.5 43.39 28.81 41.44 22.34 44.55C18.79 46.25 16.02 48.72 15.86 48.86C13.96 50.68 7.84 55.35 4.79 53.02C4.13 52.51 3.79 51.89 3.72 51.08C3.48 48.27 6.44 44.24 7.92 42.55L11.2 41.4C11.2 41.4 10.54 41.33 8.99 39.94C7.55 38.64 7.16 37.23 7.16 37.23L5.68 40.23C4.63 41.41 0.13 46.72 0.52 51.35C0.67 53.05 1.47 54.51 2.84 55.56Z" />
		</g>
	</g>
</svg>