<svg xmlns="http://www.w3.org/2000/svg" xmlns:xlink="http://www.w3.org/1999/xlink" width="46.5" height="46.53" viewBox="0 0 46.5 46.53"><defs><style>.a{fill:#c8eb4f;}.b{fill:url(#a);}</style><linearGradient id="a" x1="0.5" x2="0.5" y2="1.502" gradientUnits="objectBoundingBox"><stop offset="0" stop-color="#a4bad7"/><stop offset="1" stop-color="#100f0f"/></linearGradient></defs><path class="a" d="M27.294,0H9.094L0,15.756,9.094,31.512h18.2l9.094-15.756Z" transform="translate(5.456 7.244)"/><path class="b" d="M43,27.1l2.5.4A20.574,20.574,0,0,1,34.9,42.3l-1.2-2.2A17.974,17.974,0,0,0,43,27.1Zm-39.5,0L1,27.6A20.574,20.574,0,0,0,11.6,42.4l1.2-2.2A18.34,18.34,0,0,1,3.5,27.1ZM23.3,2.5a17.96,17.96,0,0,1,8.8,2.2l1.2-2.2A20.888,20.888,0,0,0,23.3,0a21.686,21.686,0,0,0-10,2.4l1.2,2.2A18.736,18.736,0,0,1,23.3,2.5ZM46.5,18.9V23l-.5.3a13.251,13.251,0,0,1-7.2,2.2h-.5a13.07,13.07,0,0,1-7.7-2.2l-.6-.4V18.8c0-1.6,2-3.2,4.4-4.1a5.574,5.574,0,0,1-1.4-3V8.9A5.148,5.148,0,0,1,38.1,4h.3a5.133,5.133,0,0,1,5.1,4.8v3.1a4.942,4.942,0,0,1-1.4,3C44.5,15.7,46.5,17.2,46.5,18.9Zm-11-10v2.6a2.534,2.534,0,0,0,1,1.8,2.52,2.52,0,0,0,2,.6A2.765,2.765,0,0,0,41,11.5V8.9a2.713,2.713,0,0,0-2.7-2.4h0A2.6,2.6,0,0,0,35.5,8.9Zm8.5,10c-.2-.6-2.9-2.3-5.7-2.3h0c-2.8,0-5.5,1.7-5.7,2.4v2.6A10.288,10.288,0,0,0,38.3,23h.2a10.288,10.288,0,0,0,5.7-1.4V18.9Zm-12.5,21v4l-.5.4a11.793,11.793,0,0,1-7.7,2.2h-.7a11.742,11.742,0,0,1-7-2.3l-.6-.3v-4c0-1.7,2-3.2,4.3-4.1A5.448,5.448,0,0,1,18,32.7V29.8a5.148,5.148,0,0,1,5.1-4.9h.3a5.133,5.133,0,0,1,5.1,4.8v2.9a5.448,5.448,0,0,1-1.3,3.1C29.5,36.7,31.5,38.1,31.5,39.9Zm-11-10v2.7A2.713,2.713,0,0,0,23.2,35,2.665,2.665,0,0,0,26,32.6V29.9a2.713,2.713,0,0,0-2.7-2.4h0A2.665,2.665,0,0,0,20.5,29.9Zm8.5,10c-.2-.6-3-2.4-5.8-2.4s-5.5,1.8-5.8,2.4v2.7A9.516,9.516,0,0,0,23.1,44h.2A10.288,10.288,0,0,0,29,42.6V39.9ZM8.3,25.5A13.07,13.07,0,0,1,.6,23.3L0,22.9V18.8c0-1.6,1.9-3.2,4.3-4.1a5.445,5.445,0,0,1-1.3-3V8.8A5.133,5.133,0,0,1,8.1,4h.3a5.133,5.133,0,0,1,5.1,4.8v2.9a5.448,5.448,0,0,1-1.3,3.1c2.3.9,4.3,2.4,4.3,4.1V23l-.5.3a13.251,13.251,0,0,1-7.2,2.2ZM5.5,8.9v2.7A2.543,2.543,0,0,0,8.1,14h.1A2.665,2.665,0,0,0,11,11.6V8.9A2.713,2.713,0,0,0,8.3,6.5h0A2.6,2.6,0,0,0,5.5,8.9ZM8.2,23h.1A10.288,10.288,0,0,0,14,21.6V18.9c-.2-.6-3-2.4-5.8-2.4s-5.5,1.7-5.8,2.4v2.6A10.1,10.1,0,0,0,8.2,23Z"/></svg>