<svg xmlns="http://www.w3.org/2000/svg" viewBox="0 0 65 65" width="65" height="65">
	<defs>
		<clipPath clipPathUnits="userSpaceOnUse" id="cp1">
			<path d="M-100 -747L650 -747L650 587L-100 587Z" />
		</clipPath>
	</defs>
	<style>
		tspan { white-space:pre }
		.music-2-shp0 { fill: #ffffff } 
	</style>
	<g id="Leaderboard - Home" clip-path="url(#cp1)">
		<g id="Trending Tracks">
			<path id="music-2" fill-rule="evenodd" class="music-2-shp0" d="M32.32 64.65C23.69 64.65 15.57 61.28 9.47 55.18C3.36 49.07 0 40.96 0 32.32C0 23.69 3.36 15.57 9.47 9.47C15.57 3.36 23.69 0 32.32 0C40.96 0 49.07 3.36 55.18 9.47C61.28 15.57 64.65 23.69 64.65 32.32C64.65 40.96 61.28 49.07 55.18 55.18C49.07 61.28 40.96 64.65 32.32 64.65ZM32.32 5.05C17.28 5.05 5.05 17.28 5.05 32.32C5.05 47.36 17.28 59.6 32.32 59.6C47.36 59.6 59.6 47.36 59.6 32.32C59.6 17.28 47.36 5.05 32.32 5.05ZM32.32 44.44C25.64 44.44 20.2 39.01 20.2 32.32C20.2 25.64 25.64 20.2 32.32 20.2C39.01 20.2 44.44 25.64 44.44 32.32C44.44 39.01 39.01 44.44 32.32 44.44ZM32.32 25.25C28.42 25.25 25.25 28.42 25.25 32.32C25.25 36.22 28.42 39.39 32.32 39.39C36.22 39.39 39.39 36.22 39.39 32.32C39.39 28.42 36.22 25.25 32.32 25.25ZM29.8 32.32C29.8 30.93 30.93 29.8 32.32 29.8C33.72 29.8 34.85 30.93 34.85 32.32C34.85 33.72 33.72 34.85 32.32 34.85C30.93 34.85 29.8 33.72 29.8 32.32ZM15.15 32.32L10.1 32.32C10.1 20.07 20.07 10.1 32.32 10.1L32.32 15.15C22.85 15.15 15.15 22.85 15.15 32.32ZM32.32 54.54L32.32 49.49C41.79 49.49 49.49 41.79 49.49 32.32L54.55 32.32C54.55 44.58 44.58 54.54 32.32 54.54Z" />
		</g>
	</g>
</svg>