<svg xmlns="http://www.w3.org/2000/svg" viewBox="0 0 130 121" width="50" height="50">
	<defs>
		<clipPath clipPathUnits="userSpaceOnUse" id="cp1">
			<path d="M-310 -423L440 -423L440 1585L-310 1585Z" />
		</clipPath>
	</defs>
	<style>
		tspan { white-space:pre }
		.music-multimedia-shp0 { fill: #000000 } 
	</style>
	<g id="Play Screen – Alternative" clip-path="url(#cp1)">
		<g id="music-and-multimedia">
			<path id="Path 276" class="music-multimedia-shp0" d="M75.02 0.43C73.52 -0.29 71.76 -0.1 70.47 0.94L28.61 34.43L8.61 34.43C3.86 34.43 0 38.29 0 43.03L0 77.46C0 82.21 3.86 86.07 8.61 86.07L28.61 86.07L70.46 119.55C71.24 120.17 72.2 120.49 73.15 120.49C73.79 120.49 74.43 120.34 75.02 120.06C76.51 119.35 77.45 117.84 77.45 116.19L77.45 4.31C77.45 2.66 76.51 1.15 75.02 0.43Z" />
			<path id="Path 277" class="music-multimedia-shp0" d="M99.24 29.82C97.54 28.15 94.82 28.17 93.15 29.85C91.48 31.55 91.5 34.27 93.19 35.94C99.69 42.36 103.27 51 103.27 60.25C103.27 69.5 99.69 78.13 93.19 84.55C91.5 86.21 91.48 88.94 93.15 90.64C94 91.49 95.11 91.91 96.21 91.91C97.3 91.91 98.39 91.5 99.24 90.66C107.4 82.63 111.88 71.82 111.88 60.25C111.88 48.67 107.4 37.86 99.24 29.82Z" />
			<path id="Path 278" class="music-multimedia-shp0" d="M111.38 17.69C109.68 16.01 106.97 16.03 105.29 17.72C103.62 19.4 103.63 22.13 105.31 23.8C115.1 33.5 120.49 46.44 120.49 60.25C120.49 74.05 115.1 86.99 105.31 96.69C103.63 98.36 103.62 101.09 105.29 102.78C106.14 103.62 107.24 104.04 108.34 104.04C109.44 104.04 110.54 103.63 111.38 102.8C122.81 91.48 129.09 76.37 129.09 60.25C129.09 44.13 122.81 29.02 111.38 17.69Z" />
		</g>
	</g>
</svg>