<svg xmlns="http://www.w3.org/2000/svg" viewBox="0 0 47 53" >
	<defs>
		<clipPath clipPathUnits="userSpaceOnUse" id="cp1">
			<path d="M-201 -1246L549 -1246L549 88L-201 88Z" />
		</clipPath>
	</defs>
	<style>
		tspan { white-space:pre }
		<!-- .shp0 { fill: #ffffff }  -->
		.shp1 { fill: #c40019 } 
	</style>
	<g id="Home" clip-path="url(#cp1)">
		<g id="Bottom Nav Bar">
			<g id="Group 438">
				<path id="icons8-music" class="music-shp0" d="M37.37 8.28L18 14.21C15.65 14.88 13.75 17.33 13.75 19.68L13.75 39.84C13.75 39.84 13.75 40.11 13.75 40.12C13.75 40.12 12.34 39.17 9.21 39.61C4.62 40.27 0.9 43.79 0.9 47.49C0.9 51.19 4.62 53.45 9.21 52.79C13.81 52.15 17.18 48.73 17.18 45.03C17.18 45.03 17.18 29.22 17.18 27.58C17.18 25.94 19.15 25.24 19.15 25.24L36.28 19.87C36.28 19.87 38.18 19.23 38.18 20.98C38.18 22.74 38.18 34.99 38.18 34.99C38.18 34.99 38.18 35 38.18 35.01C38.18 35.01 36.43 34 33.3 34.38C28.71 34.94 24.99 38.39 24.99 42.08C24.99 45.78 28.71 48.12 33.3 47.56C37.9 47.01 41.62 43.56 41.62 39.86L41.62 11.32C41.62 8.97 39.72 7.61 37.37 8.28Z" />
				<path id="Path 2228" class="shp1" d="M38.22 15.39C37.79 15.39 37.43 15.06 37.43 14.66L37.43 9.24L36.37 9.24C33.83 9.11 33.78 7.11 34.82 5.76L35.86 4.43L38.44 1.11C39.61 -0.31 41.5 -0.31 42.52 1.11L45.1 4.43L46.14 5.76C47.19 7.11 47.13 9.11 44.59 9.24L43.53 9.24L43.53 14.66C43.53 15.06 43.17 15.39 42.74 15.39L38.22 15.39Z" />
			</g>
		</g>
	</g>
</svg>