<svg xmlns="http://www.w3.org/2000/svg" viewBox="0 0 76 67" width="76" height="67">
	<defs>
		<clipPath clipPathUnits="userSpaceOnUse" id="cp1">
			<path d="M-96 -484L654 -484L654 850L-96 850Z" />
		</clipPath>
	</defs>
	<style>
		tspan { white-space:pre }
		.music-1-shp0 { fill: #ffffff } 
	</style>
	<g id="Leaderboard - Home" clip-path="url(#cp1)">
		<g id="music">
			<path id="Path 232" class="music-1-shp0" d="M71.03 35.78L71.03 33.16C71.03 14.87 56.01 0 37.73 0C19.44 0 4.42 14.87 4.42 33.16L4.42 35.78C1.85 36.69 0 39.12 0 42L0 59.69C0 63.34 2.97 66.32 6.63 66.32L15.47 66.32C16.7 66.32 17.68 65.33 17.68 64.11L17.68 37.58C17.68 36.36 16.7 35.37 15.47 35.37L8.84 35.37L8.84 33.16C8.84 17.31 21.88 4.42 37.73 4.42C53.57 4.42 66.61 17.31 66.61 33.16L66.61 35.37L59.98 35.37C58.76 35.37 57.77 36.36 57.77 37.58L57.77 64.11C57.77 65.33 58.76 66.32 59.98 66.32L68.82 66.32C72.48 66.32 75.46 63.34 75.46 59.69L75.46 42C75.46 39.12 73.6 36.69 71.03 35.78Z" />
			<path id="Path 233" class="music-1-shp0" d="M39.29 31.6C38.68 30.99 37.73 30.77 36.88 31.12C36.05 31.46 35.52 32.28 35.52 33.16L35.52 49.04C34.82 48.79 34.09 48.63 33.31 48.63C29.65 48.63 26.67 51.61 26.67 55.26C26.67 58.92 29.65 61.9 33.31 61.9C36.96 61.9 39.94 58.92 39.94 55.26L39.94 38.49L45.01 43.56C46.58 45.14 46.58 47.7 45.01 49.28C42.91 51.38 46.09 54.44 48.13 52.41C51.43 49.11 51.43 43.74 48.13 40.44L39.29 31.6Z" />
		</g>
	</g>
</svg>