<svg xmlns="http://www.w3.org/2000/svg" width="20.117" height="28.611" viewBox="0 0 20.117 28.611"><defs><style>.a{fill:#fff;}</style></defs><g transform="translate(-76)"><g transform="translate(76)"><path class="a" d="M86.058,0A10.06,10.06,0,0,0,77.5,15.348l7.984,12.867a.838.838,0,0,0,.712.4H86.2a.838.838,0,0,0,.712-.407L94.7,15.212A10.061,10.061,0,0,0,86.058,0Zm7.2,14.351L86.185,26.162l-7.259-11.7a8.388,8.388,0,1,1,14.333-.113Z" transform="translate(-76)"/></g><g transform="translate(81.029 5.029)"><path class="a" d="M171.029,90a5.029,5.029,0,1,0,5.029,5.029A5.035,5.035,0,0,0,171.029,90Zm0,8.393a3.364,3.364,0,1,1,3.358-3.364A3.367,3.367,0,0,1,171.029,98.393Z" transform="translate(-166 -90)"/></g></g></svg>