<svg xmlns="http://www.w3.org/2000/svg" viewBox="0 0 93 93" width="93" height="93">
	<defs>
		<clipPath clipPathUnits="userSpaceOnUse" id="cp1">
			<path d="M-297 -561L453 -561L453 773L-297 773Z" />
		</clipPath>
		<linearGradient id="grd1" gradientUnits="userSpaceOnUse"  x1="0" y1="46.788" x2="92.155" y2="46.788">
			<stop offset="0" stop-color="#fc4f35"  />
			<stop offset="1" stop-color="#c8013b"  />
		</linearGradient>
	</defs>
	<style>
		tspan { white-space:pre }
		.pointsEarned-shp0 { fill: url(#grd1) } 
		.pointsEarned-shp1 { fill: #ffffff } 
	</style>
	<g id="Points Earned" clip-path="url(#cp1)">
		<g id="Group 362">
			<g id="Group 491">
				<g id="Group 490">
					<g id="Group 489">
						<path id="Path 2247" class="pointsEarned-shp0" d="M46.08 0.71C20.63 0.71 0 21.34 0 46.79C0 72.24 20.63 92.87 46.08 92.87C71.53 92.87 92.16 72.24 92.16 46.79C92.16 21.34 71.53 0.71 46.08 0.71Z" />
						<path id="Path 2248" class="pointsEarned-shp1" d="M45.04 71.82L45.04 65.98C42.03 65.64 39.14 64.64 37.21 63.26L36.01 62.4L38.71 54.87L40.79 56.26C42.79 57.59 45.36 58.36 47.84 58.36C50.74 58.36 52.61 56.95 52.61 54.78C52.61 53.31 51.99 51.7 47.45 49.86C45.2 48.98 42.34 47.72 40.24 45.8C37.99 43.76 36.9 41.29 36.9 38.27C36.9 35.64 37.77 33.23 39.42 31.31C40.91 29.56 42.98 28.29 45.44 27.6L45.44 21.51L52.85 21.51L52.85 27.14C55.22 27.43 57.32 28.12 59.23 29.24L60.65 30.07L57.85 37.49L55.86 36.35C54.99 35.85 52.94 34.69 49.71 34.69C47.18 34.69 45.67 35.78 45.67 37.59C45.67 39.14 46.51 40.18 51.47 42.23C54.94 43.65 57.4 45.27 59 47.19C60.64 49.17 61.44 51.52 61.44 54.38C61.44 57.1 60.52 59.61 58.79 61.64C57.21 63.5 55.05 64.84 52.51 65.55L52.51 71.82L45.04 71.82Z" />
						<g id="Group 488">
							<path id="Path 2249" class="pointsEarned-shp1" d="M21.71 41.84L23.88 45.24L26.13 41.84L30.28 41.84L25.91 48.05L30.45 54.54L26.22 54.54L23.74 51.05L21.33 54.54L17.25 54.54L21.69 48.07L17.49 41.84L21.71 41.84Z" />
						</g>
					</g>
				</g>
			</g>
		</g>
	</g>
</svg>