<svg xmlns="http://www.w3.org/2000/svg" viewBox="0 0 38 38" width="20" height="20">
	<defs>
		<clipPath clipPathUnits="userSpaceOnUse" id="cp1">
			<path d="M-92 -257L658 -257L658 1077L-92 1077Z" />
		</clipPath>
	</defs>
	<style>
		tspan { white-space:pre }
		.searh-shp0 { fill: #930a22 } 
	</style>
	<g id="Home" clip-path="url(#cp1)">
		<g id="Search Bar">
			<g id="shapes-and-symbols-2">
				<g id="Group 16">
					<path id="Path 231" fill-rule="evenodd" class="searh-shp0" d="M37.76 36.65L36.65 37.76C36.34 38.07 35.83 38.07 35.53 37.76L24.49 26.73C21.9 28.82 18.62 30.08 15.04 30.08C6.75 30.08 0 23.33 0 15.04C0 6.75 6.75 0 15.04 0C23.33 0 30.08 6.75 30.08 15.04C30.08 18.62 28.82 21.9 26.73 24.49L37.76 35.53C38.07 35.83 38.07 36.34 37.76 36.65ZM26.91 15.04C26.91 8.49 21.59 3.17 15.04 3.17C8.49 3.17 3.17 8.49 3.17 15.04C3.17 21.59 8.49 26.91 15.04 26.91C21.59 26.91 26.91 21.59 26.91 15.04Z" />
					<path id="Path 270" fill-rule="evenodd" class="searh-shp0" d="M37.76 36.65L36.65 37.77C36.34 38.07 35.83 38.07 35.53 37.77L24.49 26.73C21.9 28.82 18.62 30.08 15.04 30.08C6.75 30.08 0 23.33 0 15.04C0 6.75 6.75 0 15.04 0C23.33 0 30.08 6.75 30.08 15.04C30.08 18.62 28.82 21.9 26.73 24.49L37.76 35.53C38.07 35.83 38.07 36.34 37.76 36.65ZM26.91 15.04C26.91 8.49 21.59 3.17 15.04 3.17C8.49 3.17 3.17 8.49 3.17 15.04C3.17 21.59 8.49 26.91 15.04 26.91C21.59 26.91 26.91 21.59 26.91 15.04Z" />
				</g>
			</g>
		</g>
	</g>
</svg>