<svg xmlns="http://www.w3.org/2000/svg" width="30.606" height="30.606" viewBox="0 0 30.606 30.606"><defs><style>.a{fill:#fff;}</style></defs><path class="a" d="M16.264,30.606H14.343a2.821,2.821,0,0,1-2.818-2.818v-.65a12.356,12.356,0,0,1-1.919-.8l-.461.461a2.818,2.818,0,0,1-3.985,0L3.8,25.445a2.817,2.817,0,0,1,0-3.985l.46-.46a12.357,12.357,0,0,1-.8-1.919h-.65A2.821,2.821,0,0,1,0,16.264V14.343a2.821,2.821,0,0,1,2.818-2.818h.65a12.359,12.359,0,0,1,.8-1.919L3.8,9.146a2.818,2.818,0,0,1,0-3.985L5.161,3.8a2.817,2.817,0,0,1,3.985,0l.46.46a12.368,12.368,0,0,1,1.919-.8v-.65A2.821,2.821,0,0,1,14.343,0h1.921a2.821,2.821,0,0,1,2.818,2.818v.65a12.356,12.356,0,0,1,1.919.8L21.46,3.8a2.818,2.818,0,0,1,3.985,0L26.8,5.161a2.817,2.817,0,0,1,0,3.985l-.46.46a12.357,12.357,0,0,1,.8,1.919h.65a2.821,2.821,0,0,1,2.818,2.818v1.921a2.821,2.821,0,0,1-2.818,2.818h-.65a12.359,12.359,0,0,1-.8,1.919l.461.461a2.818,2.818,0,0,1,0,3.985L25.445,26.8a2.817,2.817,0,0,1-3.985,0l-.46-.46a12.367,12.367,0,0,1-1.919.8v.65A2.821,2.821,0,0,1,16.264,30.606ZM9.906,24.459a10.57,10.57,0,0,0,2.74,1.137.9.9,0,0,1,.673.868v1.324a1.025,1.025,0,0,0,1.024,1.024h1.921a1.025,1.025,0,0,0,1.024-1.024V26.465a.9.9,0,0,1,.673-.868,10.57,10.57,0,0,0,2.74-1.137.9.9,0,0,1,1.091.138l.938.938a1.024,1.024,0,0,0,1.448,0l1.359-1.359a1.024,1.024,0,0,0,0-1.448l-.938-.938a.9.9,0,0,1-.138-1.09A10.568,10.568,0,0,0,25.6,17.96a.9.9,0,0,1,.868-.673h1.324a1.025,1.025,0,0,0,1.024-1.024V14.343a1.025,1.025,0,0,0-1.024-1.024H26.465a.9.9,0,0,1-.868-.673,10.57,10.57,0,0,0-1.137-2.74.9.9,0,0,1,.138-1.09l.938-.938a1.024,1.024,0,0,0,0-1.448L24.177,5.071a1.024,1.024,0,0,0-1.448,0l-.938.938a.9.9,0,0,1-1.091.138,10.569,10.569,0,0,0-2.74-1.137.9.9,0,0,1-.673-.868V2.818a1.025,1.025,0,0,0-1.024-1.024H14.343a1.025,1.025,0,0,0-1.024,1.024V4.141a.9.9,0,0,1-.673.868,10.569,10.569,0,0,0-2.74,1.137.9.9,0,0,1-1.091-.138l-.938-.938a1.024,1.024,0,0,0-1.448,0L5.071,6.429a1.024,1.024,0,0,0,0,1.448l.938.938a.9.9,0,0,1,.138,1.09,10.568,10.568,0,0,0-1.137,2.74.9.9,0,0,1-.868.673H2.818a1.025,1.025,0,0,0-1.024,1.024v1.921a1.025,1.025,0,0,0,1.024,1.024H4.141a.9.9,0,0,1,.868.673A10.57,10.57,0,0,0,6.147,20.7a.9.9,0,0,1-.138,1.09l-.938.938a1.024,1.024,0,0,0,0,1.448l1.358,1.358a1.024,1.024,0,0,0,1.448,0l.938-.938a.9.9,0,0,1,1.091-.138Z"/><path class="a" d="M151.259,157.919a6.659,6.659,0,1,1,6.659-6.659A6.667,6.667,0,0,1,151.259,157.919Zm0-11.525a4.866,4.866,0,1,0,4.866,4.866A4.871,4.871,0,0,0,151.259,146.393Z" transform="translate(-135.956 -135.956)"/></svg>