<svg xmlns="http://www.w3.org/2000/svg" width="33" height="36" viewBox="0 0 33 36"><defs><style>.a{opacity:0.78;}.b{fill:#fff;}</style></defs><g class="a"><path class="b" d="M324.418,20.875A4.875,4.875,0,1,1,319.543,16,4.875,4.875,0,0,1,324.418,20.875Zm0,0" transform="translate(-292.543 -14.875)"/><path class="b" d="M304.668,12a6,6,0,1,1,6-6A6.006,6.006,0,0,1,304.668,12Zm0-9.75A3.75,3.75,0,1,0,308.418,6,3.754,3.754,0,0,0,304.668,2.25Zm0,0" transform="translate(-277.668)"/><path class="b" d="M324.418,362.207a4.875,4.875,0,1,1-4.875-4.875A4.875,4.875,0,0,1,324.418,362.207Zm0,0" transform="translate(-292.543 -332.207)"/><path class="b" d="M304.668,353.332a6,6,0,1,1,6-6A6.006,6.006,0,0,1,304.668,353.332Zm0-9.75a3.75,3.75,0,1,0,3.75,3.75A3.754,3.754,0,0,0,304.668,343.582Zm0,0" transform="translate(-277.668 -317.332)"/><path class="b" d="M25.75,191.543a4.875,4.875,0,1,1-4.875-4.875A4.875,4.875,0,0,1,25.75,191.543Zm0,0" transform="translate(-14.875 -173.543)"/><path class="b" d="M6,182.668a6,6,0,1,1,6-6A6.006,6.006,0,0,1,6,182.668Zm0-9.75a3.75,3.75,0,1,0,3.75,3.75A3.754,3.754,0,0,0,6,172.918Zm0,0" transform="translate(0 -158.668)"/><path class="b" d="M115.85,101.152a1.5,1.5,0,0,1-.744-2.8l13.918-7.935a1.5,1.5,0,1,1,1.485,2.607l-13.919,7.935A1.49,1.49,0,0,1,115.85,101.152Zm0,0" transform="translate(-106.308 -83.871)"/><path class="b" d="M129.788,277.155a1.49,1.49,0,0,1-.741-.2l-13.919-7.935a1.5,1.5,0,0,1,1.485-2.607l13.919,7.935a1.5,1.5,0,0,1-.744,2.8Zm0,0" transform="translate(-106.329 -247.5)"/></g></svg>