<svg xmlns="http://www.w3.org/2000/svg" viewBox="0 0 38 45">
	<defs>
		<clipPath clipPathUnits="userSpaceOnUse" id="cp1">
			<path d="M-653 -1253L97 -1253L97 81L-653 81Z" />
		</clipPath>
	</defs>
	<g id="Home" clip-path="url(#cp1)">
		<g id="Bottom Nav Bar">
			<g id="social">
				<path id="Path 228" class="social-shp0" d="M18.41 21.59C21.38 21.59 23.95 20.52 26.05 18.43C28.14 16.33 29.21 13.76 29.21 10.79C29.21 7.83 28.14 5.26 26.05 3.16C23.95 1.06 21.38 0 18.41 0C15.45 0 12.88 1.06 10.78 3.16C8.68 5.26 7.62 7.83 7.62 10.79C7.62 13.76 8.68 16.33 10.78 18.43C12.88 20.52 15.45 21.59 18.41 21.59Z" />
				<path id="Path 229" class="social-shp0" d="M37.3 34.46C37.24 33.59 37.12 32.64 36.94 31.63C36.76 30.62 36.52 29.66 36.24 28.78C35.95 27.88 35.56 26.98 35.07 26.13C34.57 25.24 33.97 24.46 33.31 23.83C32.61 23.16 31.76 22.63 30.77 22.24C29.79 21.85 28.7 21.65 27.53 21.65C27.08 21.65 26.63 21.84 25.78 22.39C25.25 22.74 24.64 23.13 23.95 23.57C23.36 23.95 22.57 24.3 21.59 24.61C20.63 24.92 19.66 25.08 18.7 25.08C17.73 25.08 16.76 24.92 15.8 24.61C14.82 24.3 14.03 23.95 13.44 23.57C12.76 23.14 12.14 22.74 11.61 22.39C10.76 21.84 10.31 21.65 9.86 21.65C8.69 21.65 7.6 21.85 6.62 22.24C5.63 22.63 4.78 23.16 4.08 23.83C3.42 24.46 2.82 25.24 2.32 26.13C1.83 26.98 1.44 27.88 1.15 28.78C0.87 29.66 0.63 30.62 0.45 31.63C0.27 32.64 0.15 33.59 0.09 34.46C0.03 35.32 0 36.21 0 37.11C0 39.45 0.74 41.34 2.21 42.74C3.66 44.12 5.58 44.82 7.91 44.82L29.49 44.82C31.82 44.82 33.73 44.12 35.18 42.74C36.65 41.34 37.39 39.45 37.39 37.11C37.39 36.21 37.36 35.32 37.3 34.46Z" />
			</g>
		</g>
	</g>
</svg>