<svg xmlns="http://www.w3.org/2000/svg" viewBox="0 0 37 35" width="37" height="35">
	<defs>
		<clipPath clipPathUnits="userSpaceOnUse" id="cp1">
			<path d="M-436 -1358L314 -1358L314 1512L-436 1512Z" />
		</clipPath>
	</defs>
	<style>
		tspan { white-space:pre }
		.star-shp0 { fill: #ffffff } 
	</style>
	<g id="User Profile – Results – Interaction" clip-path="url(#cp1)">
		<g id="Group 481">
			<g id="Group 441">
				<path id="shapes-and-symbols-3" fill-rule="evenodd" class="star-shp0" d="M8.62 34.81C8.23 34.81 7.84 34.69 7.51 34.45C6.9 34.01 6.61 33.24 6.78 32.5L9.06 22.44L1.31 15.65C0.74 15.15 0.53 14.36 0.76 13.64C0.99 12.92 1.63 12.41 2.38 12.35L12.63 11.41L16.69 1.93C16.99 1.23 17.67 0.78 18.42 0.78C19.18 0.78 19.86 1.23 20.16 1.93L24.21 11.41L34.46 12.35C35.21 12.41 35.85 12.92 36.08 13.64C36.32 14.36 36.1 15.15 35.53 15.65L27.78 22.44L30.07 32.5C30.24 33.24 29.95 34.01 29.34 34.45C28.72 34.89 27.91 34.93 27.26 34.54L18.42 29.26L9.58 34.54C9.28 34.72 8.95 34.81 8.62 34.81ZM18.42 26.98C18.76 26.98 19.09 27.07 19.39 27.25L27.73 32.24L25.58 22.74C25.42 22.07 25.65 21.36 26.17 20.9L33.49 14.49L23.81 13.61C23.11 13.55 22.51 13.11 22.24 12.47L18.42 3.52L14.6 12.47C14.33 13.1 13.73 13.54 13.03 13.61L3.35 14.49L10.67 20.9C11.19 21.36 11.42 22.06 11.27 22.74L9.11 32.24L17.45 27.25C17.75 27.07 18.09 26.98 18.42 26.98ZM12.56 11.6C12.56 11.6 12.56 11.6 12.55 11.6L12.56 11.6ZM24.29 11.59L24.29 11.6C24.29 11.59 24.29 11.59 24.29 11.59Z" />
			</g>
		</g>
	</g>
</svg>