<svg xmlns="http://www.w3.org/2000/svg" viewBox="0 0 57 54" width="35" height="35">
	<defs>
		<clipPath clipPathUnits="userSpaceOnUse" id="cp1">
			<path d="M-347 -499L403 -499L403 835L-347 835Z" />
		</clipPath>
	</defs>
	<style>
		tspan { white-space:pre }
		.star-unfilled-shp0 { fill: #efc13c } 
	</style>
	<g id="Rating – star" clip-path="url(#cp1)">
		<path id="shapes-and-symbols-3" fill-rule="evenodd" class="star-unfilled-shp0" d="M12.6 53.96C11.98 53.96 11.37 53.76 10.85 53.39C9.88 52.68 9.42 51.47 9.69 50.3L13.31 34.34L1.02 23.57C0.12 22.78 -0.22 21.53 0.15 20.39C0.52 19.25 1.53 18.44 2.72 18.33L18.97 16.86L25.4 1.82C25.87 0.71 26.95 0 28.15 0C29.35 0 30.43 0.71 30.9 1.81L37.33 16.86L53.58 18.33C54.78 18.44 55.79 19.25 56.16 20.39C56.53 21.53 56.19 22.78 55.28 23.57L43 34.34L46.62 50.3C46.89 51.47 46.43 52.68 45.46 53.38C44.49 54.09 43.19 54.14 42.17 53.53L28.15 45.15L14.14 53.53C13.66 53.81 13.13 53.96 12.6 53.96ZM28.15 41.54C28.68 41.54 29.21 41.69 29.69 41.97L42.91 49.88L39.49 34.82C39.25 33.75 39.61 32.63 40.44 31.9L52.04 21.73L36.7 20.34C35.59 20.24 34.64 19.54 34.21 18.52L28.15 4.33L22.09 18.53C21.66 19.54 20.71 20.23 19.61 20.33L4.26 21.73L15.86 31.9C16.69 32.63 17.05 33.74 16.81 34.82L13.39 49.88L26.62 41.97C27.09 41.69 27.62 41.54 28.15 41.54ZM18.85 17.15C18.85 17.15 18.85 17.15 18.85 17.15L18.85 17.15ZM37.45 17.14L37.45 17.15C37.45 17.14 37.45 17.14 37.45 17.14Z" />
	</g>
</svg>