<svg xmlns="http://www.w3.org/2000/svg" viewBox="0 0 65 63" width="35" height="35">
	<defs>
		<clipPath clipPathUnits="userSpaceOnUse" id="cp1">
			<path d="M-346 -689L404 -689L404 645L-346 645Z" />
		</clipPath>
	</defs>
	<style>
		tspan { white-space:pre }
		.star-filled-shp0 { fill: #ffc107 } 
	</style>
	<g id="Rating – star" clip-path="url(#cp1)">
		<g id="Group 94">
			<path id="shapes-and-symbols-5" class="star-filled-shp0" d="M64.66 23.48C64.23 22.16 63.07 21.23 61.69 21.11L42.98 19.41L35.58 2.09C35.04 0.82 33.79 0 32.41 0C31.03 0 29.79 0.82 29.24 2.09L21.85 19.41L3.13 21.11C1.76 21.23 0.6 22.16 0.17 23.48C-0.26 24.79 0.14 26.23 1.18 27.14L15.32 39.54L11.15 57.91C10.84 59.26 11.37 60.66 12.49 61.47C13.09 61.9 13.8 62.12 14.51 62.12C15.12 62.12 15.73 61.96 16.27 61.63L32.41 51.99L48.55 61.63C49.73 62.34 51.22 62.28 52.33 61.47C53.46 60.66 53.98 59.26 53.67 57.91L49.5 39.54L63.65 27.14C64.69 26.23 65.08 24.79 64.66 23.48Z" />
		</g>
	</g>
</svg>