<svg xmlns="http://www.w3.org/2000/svg" viewBox="0 0 40 38" width="40" height="38">
	<defs>
		<clipPath clipPathUnits="userSpaceOnUse" id="cp1">
			<path d="M-557 -1513L193 -1513L193 1357L-557 1357Z" />
		</clipPath>
	</defs>
	<style>
		tspan { white-space:pre }
		.thumbs-down-shp0 { fill: #7b7b7b } 
	</style>
	<g id="User Profile – Results – Interaction" clip-path="url(#cp1)">
		<g id="Group 481">
			<g id="Group 450">
				<g id="Group 444">
					<path id="Path 2214" fill-rule="evenodd" class="thumbs-down-shp0" d="M2.94 12.53C2.7 12.04 2.57 11.5 2.57 10.94C2.57 9.56 3.36 8.35 4.53 7.76C4.17 7.03 4.06 6.2 4.25 5.37C4.6 3.76 6.12 2.59 7.85 2.59L22.45 2.59C23.55 2.59 25.34 2.95 26.66 3.63C27.21 2.1 28.68 1 30.4 1L35.17 1C37.37 1 39.15 2.78 39.15 4.98L39.15 17.7C39.15 19.89 37.37 21.68 35.17 21.68L27.22 21.68C26.78 21.68 26.42 21.32 26.42 20.88L26.42 20.58L26.24 20.67L21.65 30.6L21.65 35.99C21.65 36.23 21.54 36.46 21.35 36.61C21.3 36.65 20.12 37.58 18.47 37.58C16.63 37.58 13.7 34.67 13.7 31.22C13.7 29.04 14.48 26.33 14.97 24.86L5.14 24.86C3 24.86 1.18 23.27 1 21.25C0.89 20.12 1.27 19.03 2.01 18.21C1.36 17.56 0.98 16.67 0.98 15.71C0.98 14.33 1.77 13.12 2.94 12.53ZM2.57 15.71C2.57 16.45 2.98 17.13 3.66 17.47C3.91 17.6 4.08 17.86 4.09 18.15C4.1 18.43 3.95 18.7 3.71 18.85C2.93 19.33 2.5 20.2 2.58 21.1C2.69 22.32 3.82 23.27 5.14 23.27L16.09 23.27C16.35 23.27 16.59 23.39 16.74 23.61C16.89 23.82 16.92 24.1 16.83 24.34C16.82 24.38 15.29 28.42 15.29 31.22C15.29 33.82 17.6 35.99 18.47 35.99C19.16 35.99 19.73 35.74 20.06 35.56L20.06 30.42C20.06 30.31 20.09 30.19 20.14 30.09L24.91 19.75C24.98 19.59 25.11 19.45 25.27 19.37L26.86 18.58C27.11 18.46 27.4 18.47 27.64 18.61C27.87 18.76 28.02 19.01 28.02 19.29L28.02 20.09L35.17 20.09C36.49 20.09 37.56 19.01 37.56 17.7L37.56 4.98C37.56 3.66 36.49 2.59 35.17 2.59L30.4 2.59C29.09 2.59 28.02 3.66 28.02 4.98C28.02 5.3 27.82 5.59 27.52 5.71C27.23 5.83 26.88 5.76 26.66 5.54C25.91 4.79 23.74 4.18 22.45 4.18L7.85 4.18C6.86 4.18 6 4.82 5.8 5.71C5.64 6.42 5.85 7.12 6.38 7.61C6.6 7.82 6.68 8.14 6.59 8.44C6.49 8.73 6.23 8.94 5.92 8.98C4.92 9.09 4.16 9.94 4.16 10.94C4.16 11.49 4.38 12 4.79 12.38C5.01 12.59 5.09 12.91 5 13.21C4.9 13.5 4.64 13.71 4.33 13.75C3.33 13.86 2.57 14.71 2.57 15.71Z" />
				</g>
			</g>
		</g>
	</g>
</svg>