<svg xmlns="http://www.w3.org/2000/svg" xmlns:xlink="http://www.w3.org/1999/xlink" width="39.184" height="39.184" viewBox="0 0 39.184 39.184"><defs><style>.a{fill-rule:evenodd;fill:url(#a);}</style><linearGradient id="a" x1="0.5" x2="0.5" y2="1" gradientUnits="objectBoundingBox"><stop offset="0" stop-color="#e4e7f4"/><stop offset="1" stop-color="#6b798c"/></linearGradient></defs><path class="a" d="M19.592,39.184A19.592,19.592,0,1,0,0,19.592,19.592,19.592,0,0,0,19.592,39.184Zm0-2.351A17.241,17.241,0,1,0,2.351,19.592,17.241,17.241,0,0,0,19.592,36.833Zm-.249-20.725.037.644-.623-.079a9.971,9.971,0,0,1-5.93-3.049l-.822-.854-.212.631a3.92,3.92,0,0,0,.772,3.89c.5.552.386.631-.473.3-.3-.105-.561-.184-.586-.145a4.883,4.883,0,0,0,.449,1.761,4.1,4.1,0,0,0,1.707,1.682l.61.3-.723.013c-.7,0-.723.013-.648.289a3.831,3.831,0,0,0,2.33,2.156l.772.276-.673.421a6.786,6.786,0,0,1-3.339.973,3.539,3.539,0,0,0-1.022.105,9.3,9.3,0,0,0,2.4,1.157,10.123,10.123,0,0,0,8.172-.973,11.31,11.31,0,0,0,4.148-5.1,14.077,14.077,0,0,0,.847-3.943c0-.6.037-.683.735-1.406a8.469,8.469,0,0,0,.872-1.012c.125-.25.112-.25-.523-.026-1.059.394-1.208.342-.685-.25a3.856,3.856,0,0,0,.847-1.406c0-.039-.187.026-.4.145a6.771,6.771,0,0,1-1.1.447l-.673.223-.61-.434a5,5,0,0,0-1.059-.578,4.079,4.079,0,0,0-2.18.053,3.766,3.766,0,0,0-2.429,3.785Zm0,0"/></svg>