<svg xmlns="http://www.w3.org/2000/svg" xmlns:xlink="http://www.w3.org/1999/xlink" width="39.184" height="39.184" viewBox="0 0 39.184 39.184"><defs><style>.a{fill-rule:evenodd;fill:url(#a);}</style><linearGradient id="a" x1="0.5" x2="0.5" y2="1" gradientUnits="objectBoundingBox"><stop offset="0" stop-color="#e4e7f4"/><stop offset="1" stop-color="#6b798c"/></linearGradient></defs><path class="a" d="M39.184,19.592A19.592,19.592,0,1,0,19.592,39.184,19.592,19.592,0,0,0,39.184,19.592Zm-2.351,0A17.241,17.241,0,1,0,19.592,36.833,17.241,17.241,0,0,0,36.833,19.592Zm-8.018,4.518a2.415,2.415,0,0,1-2.066,1.878,64.186,64.186,0,0,1-7.158.265,64.182,64.182,0,0,1-7.158-.265,2.414,2.414,0,0,1-2.066-1.878,20.486,20.486,0,0,1-.333-4.518,20.5,20.5,0,0,1,.337-4.519A2.414,2.414,0,0,1,12.437,13.2a64.188,64.188,0,0,1,7.158-.265,64.183,64.183,0,0,1,7.158.265,2.414,2.414,0,0,1,2.066,1.878,20.483,20.483,0,0,1,.331,4.519A20.5,20.5,0,0,1,28.815,24.111ZM17.872,16.066l5.29,3.054-5.29,3.054Zm0,0"/></svg>